<?xml version="1.0" standalone="no"?>
<!DOCTYPE svg PUBLIC "-//W3C//DTD SVG 20010904//EN"
 "http://www.w3.org/TR/2001/REC-SVG-20010904/DTD/svg10.dtd">
<svg version="1.0" xmlns="http://www.w3.org/2000/svg"
 width="700.000000pt" height="700.000000pt" viewBox="0 0 700.000000 700.000000"
 preserveAspectRatio="xMidYMid meet">
<metadata>
Created by potrace 1.14, written by Peter Selinger 2001-2017
</metadata>
<g transform="translate(0.000000,700.000000) scale(0.100000,-0.100000)"
fill="#000000" stroke="none">
<path d="M3278 6996 c-1 -2 -42 -6 -89 -10 -47 -4 -95 -8 -106 -10 -11 -3 -44
-7 -74 -11 -313 -38 -709 -158 -1024 -311 -180 -87 -448 -247 -555 -331 -8 -6
-51 -40 -95 -74 -353 -275 -673 -651 -897 -1054 -49 -87 -148 -289 -148 -301
0 -2 -9 -23 -20 -47 -57 -123 -157 -435 -186 -582 -2 -11 -10 -54 -19 -95 -22
-115 -30 -160 -41 -255 -26 -230 -26 -667 1 -826 2 -13 6 -46 9 -74 9 -78 22
-152 51 -285 21 -96 91 -339 114 -395 5 -11 25 -65 46 -120 63 -166 249 -531
312 -610 4 -6 34 -49 65 -95 170 -255 433 -535 708 -755 92 -74 370 -265 386
-265 4 0 15 -6 23 -14 46 -40 413 -212 571 -268 83 -29 268 -87 293 -92 12 -2
60 -13 107 -24 109 -27 200 -44 299 -58 25 -3 57 -8 71 -10 163 -25 682 -25
842 1 13 2 46 7 73 10 71 10 87 13 115 18 14 3 43 8 65 12 22 4 76 16 120 27
44 10 87 21 96 23 25 5 157 45 219 65 178 57 568 235 660 300 15 11 33 20 39
20 6 0 11 5 11 10 0 6 5 10 10 10 15 0 220 141 330 227 152 118 324 280 450
422 36 41 70 79 76 85 6 6 48 61 94 121 152 200 276 403 388 638 29 59 52 110
52 113 0 3 8 24 19 47 53 118 147 417 177 562 17 81 54 301 59 350 4 33 9 71
11 85 9 47 11 525 3 605 -15 165 -21 220 -24 225 -2 3 -6 30 -10 60 -4 30 -22
123 -40 205 -53 232 -102 385 -197 610 -422 993 -1304 1752 -2346 2014 -121
31 -244 57 -312 66 -19 3 -46 7 -60 10 -13 2 -52 7 -86 11 -33 3 -74 8 -90 10
-32 5 -540 14 -546 10z m32 -1611 c214 -5 371 -12 410 -18 22 -4 47 -7 155
-22 33 -5 56 -9 130 -25 159 -34 241 -55 246 -63 3 -5 9 -8 13 -6 12 4 156
-44 156 -53 0 -4 6 -8 13 -8 6 0 48 -18 92 -40 44 -22 88 -40 98 -40 9 0 17
-4 17 -10 0 -5 7 -10 15 -10 8 0 15 -4 15 -8 0 -5 18 -17 40 -27 22 -10 40
-22 40 -26 0 -4 8 -10 18 -13 9 -3 31 -18 48 -33 16 -16 48 -41 70 -58 53 -40
224 -211 224 -224 0 -6 5 -11 10 -11 6 0 10 -5 10 -11 0 -7 10 -22 23 -33 25
-25 37 -43 68 -101 12 -22 27 -43 33 -47 6 -4 7 -8 2 -8 -5 0 -2 -8 6 -17 18
-22 58 -105 58 -121 0 -7 4 -12 9 -12 5 0 13 -15 16 -32 4 -18 13 -40 20 -48
7 -8 17 -35 24 -60 7 -25 13 -49 15 -55 1 -5 9 -37 16 -70 8 -33 14 -62 15
-65 33 -134 46 -259 47 -455 1 -108 -7 -245 -17 -306 -4 -24 -9 -63 -10 -85
-2 -23 -6 -51 -9 -62 -4 -11 -9 -29 -11 -39 -2 -10 -11 -36 -19 -58 -8 -22
-15 -49 -16 -61 0 -11 -4 -24 -10 -30 -5 -5 -11 -18 -13 -29 -2 -11 -8 -29
-14 -40 -6 -11 -16 -37 -22 -57 -7 -21 -16 -38 -20 -38 -4 0 -13 -17 -19 -39
-7 -21 -19 -44 -27 -51 -8 -7 -15 -19 -15 -26 0 -8 -4 -14 -9 -14 -5 0 -13
-10 -17 -22 -4 -13 -20 -39 -35 -58 -16 -19 -29 -40 -29 -47 0 -7 -4 -13 -9
-13 -4 0 -20 -18 -35 -40 -29 -44 -53 -72 -138 -160 -32 -33 -62 -60 -67 -60
-6 0 -14 -6 -18 -14 -8 -13 -119 -106 -127 -106 -3 0 -20 -14 -38 -30 -18 -16
-40 -30 -50 -30 -9 0 -21 -6 -25 -13 -4 -8 -27 -22 -50 -32 -24 -11 -43 -22
-43 -25 0 -4 -25 -17 -55 -29 -30 -13 -55 -27 -55 -31 0 -5 -15 -12 -32 -15
-18 -4 -39 -12 -46 -18 -8 -6 -24 -13 -35 -14 -12 -2 -24 -8 -25 -13 -2 -6 -8
-8 -13 -5 -5 3 -19 0 -31 -7 -13 -7 -25 -13 -28 -13 -49 -12 -70 -19 -92 -31
-16 -8 -28 -13 -28 -9 0 3 -16 -2 -36 -10 -20 -8 -47 -15 -59 -15 -13 0 -51
-7 -85 -16 -34 -8 -73 -17 -88 -19 -15 -2 -28 -4 -29 -6 -28 -21 -290 -30
-833 -28 -612 2 -682 4 -707 17 -13 7 -23 10 -23 6 0 -4 -9 1 -20 11 -11 10
-30 23 -41 29 -12 6 -21 15 -20 19 1 4 -9 22 -23 38 -15 17 -26 39 -26 49 0
10 -3 21 -7 23 -5 3 -8 750 -8 1660 l1 1654 33 54 c18 31 55 70 84 92 45 33
58 37 112 38 33 0 80 4 105 7 47 7 510 6 850 -3z"/>
<path d="M2998 4620 c-39 -18 -78 -54 -96 -89 -18 -35 -23 -259 -22 -891 1
-289 1 -577 0 -640 -3 -252 -2 -366 2 -380 3 -8 8 -28 13 -45 12 -44 43 -85
60 -78 10 3 15 -2 15 -16 0 -12 3 -22 8 -22 4 -1 16 -3 27 -6 73 -14 237 -22
290 -14 33 6 92 10 131 10 75 0 215 11 225 17 3 2 41 6 85 10 43 4 81 10 84
14 3 4 39 15 80 25 41 10 85 25 97 32 12 8 25 14 28 13 7 -1 118 51 125 60 3
3 17 11 32 17 24 11 51 32 109 86 10 9 23 17 28 17 5 0 20 15 34 33 13 17 35
43 49 57 39 40 98 136 148 240 10 21 60 180 66 210 18 94 25 298 13 391 -4 37
-10 89 -13 115 -3 27 -10 67 -16 89 -6 22 -12 45 -13 50 -2 6 -17 41 -35 79
-18 37 -32 72 -32 77 0 5 -5 9 -11 9 -5 0 -7 5 -4 10 3 6 2 10 -4 10 -5 0 -13
9 -16 20 -3 11 -12 26 -18 33 -7 7 -27 33 -46 57 -19 25 -53 61 -75 80 -23 19
-53 48 -68 64 -16 15 -28 25 -28 20 0 -4 -6 0 -12 9 -14 17 -165 97 -185 97
-7 0 -16 6 -20 13 -7 10 -50 31 -88 41 -5 2 -17 6 -25 9 -8 4 -24 8 -35 10
-11 2 -27 7 -35 10 -8 3 -37 11 -65 17 -46 11 -62 15 -120 24 -11 2 -20 4 -20
5 0 7 -151 12 -367 14 -203 2 -253 -1 -280 -13z"/>
</g>
</svg>
